# xmcd CD database file
#
# Track frame offsets:
#	150
#	20752
#	43262
#
# Disc length: 818 seconds
#
# Revision: 0
# Processed by: cddbd v1.5PL3 Copyright (c) Steve Scherf et al.
# Submitted via: CDex 1.51
#
DISCID=23033003
DTITLE=ジムノペディ - 恋じかけのワルツ
DYEAR=2003
DGENRE=Jazz
TTITLE0=恋じかけのワルツ
TTITLE1=ワインレッドの心
TTITLE2=ミイラ少女
EXTD=YEAR: 2003
EXTT0=
EXTT1=
EXTT2=
PLAYORDER=
